<svg width="28" height="34" viewBox="0 0 28 34" fill="none" xmlns="http://www.w3.org/2000/svg">
<path d="M14 0.333496C9.39746 0.333496 5.66663 4.06433 5.66663 8.66683C5.66663 13.2693 9.39746 17.0002 14 17.0002C18.6025 17.0002 22.3333 13.2693 22.3333 8.66683C22.3333 4.06433 18.6025 0.333496 14 0.333496ZM4.20829 20.3335C3.26913 20.3335 2.36842 20.7065 1.70425 21.3705C1.04008 22.0345 0.666847 22.9352 0.666626 23.8743V24.5002C0.666626 27.6293 2.28496 29.9727 4.76663 31.4835C7.20829 32.9693 10.4883 33.6668 14 33.6668C17.5116 33.6668 20.7916 32.9693 23.2333 31.4835C25.715 29.9727 27.3333 27.6293 27.3333 24.5002V23.8743C27.3331 22.9352 26.9598 22.0345 26.2957 21.3705C25.6315 20.7065 24.7308 20.3335 23.7916 20.3335H4.20829Z" fill="white"/>
</svg>
